HIERARCHY
ROOT hip
{
	OFFSET 0.000000 0.000000 0.000000
	CHANNELS 6 Xposition Yposition Zposition Xrotation Zrotation Yrotation 
	JOINT abdomen
	{
		OFFSET 0.000000 3.422050 0.000000
		CHANNELS 3 Xrotation Zrotation Yrotation 
		JOINT chest
		{
			OFFSET 0.000000 8.486693 -0.684411
			CHANNELS 3 Xrotation Zrotation Yrotation 
			JOINT neck
			{
				OFFSET 0.000000 10.266162 -0.273764
				CHANNELS 3 Xrotation Zrotation Yrotation 
				JOINT head
				{
					OFFSET 0.000000 3.148285 0.000000
					CHANNELS 3 Xrotation Zrotation Yrotation 
					End Site
					{
						OFFSET 0.000000 3.148289 0.000000
					}
				}
			}
			JOINT lCollar
			{
				OFFSET 3.422053 6.707223 -0.821293
				CHANNELS 3 Yrotation Zrotation Xrotation 
				JOINT lShldr
				{
					OFFSET 3.285171 0.000000 0.000000
					CHANNELS 3 Zrotation Yrotation Xrotation 
					JOINT lForeArm
					{
						OFFSET 10.129278 0.000000 0.000000
						CHANNELS 3 Yrotation Zrotation Xrotation 
						JOINT lHand
						{
							OFFSET 8.486692 0.000000 0.000000
							CHANNELS 3 Zrotation Yrotation Xrotation 
							End Site
							{
								OFFSET 4.106464 0.000000 0.000000
							}
						}
					}
				}
			}
			JOINT rCollar
			{
				OFFSET -3.558935 6.707223 -0.821293
				CHANNELS 3 Yrotation Zrotation Xrotation 
				JOINT rShldr
				{
					OFFSET -3.148289 0.000000 0.000000
					CHANNELS 3 Zrotation Yrotation Xrotation 
					JOINT rForeArm
					{
						OFFSET -10.266159 0.000000 0.000000
						CHANNELS 3 Yrotation Zrotation Xrotation 
						JOINT rHand
						{
							OFFSET -8.349810 0.000000 0.000000
							CHANNELS 3 Zrotation Yrotation Xrotation 
							End Site
							{
								OFFSET -4.106464 0.000000 0.000000
							}
						}
					}
				}
			}
		}
	}
	JOINT lThigh
	{
		OFFSET 5.338403 -1.642589 1.368821
		CHANNELS 3 Xrotation Zrotation Yrotation 
		JOINT lShin
		{
			OFFSET -2.053232 -20.121670 0.000000
			CHANNELS 3 Xrotation Zrotation Yrotation 
			JOINT lFoot
			{
				OFFSET 0.000000 -19.300380 -1.231939
				CHANNELS 3 Xrotation Yrotation Zrotation 
				End Site
				{
					OFFSET 0.000000 -2.463878 4.653993
				}
			}
		}
	}
	JOINT rThigh
	{
		OFFSET -5.338403 -1.642589 1.368821
		CHANNELS 3 Xrotation Zrotation Yrotation 
		JOINT rShin
		{
			OFFSET 2.053232 -20.121670 0.000000
			CHANNELS 3 Xrotation Zrotation Yrotation 
			JOINT rFoot
			{
				OFFSET 0.000000 -19.300380 -1.231939
				CHANNELS 3 Xrotation Yrotation Zrotation 
				End Site
				{
					OFFSET 0.000000 -2.463878 4.653993
				}
			}
		}
	}
}
MOTION
Frames: 15
Frame Time: 0.033264
0.000000 43.528500 0.000000 0.000000 0.000000 0.000000 0.000000 0.000000 0.000000 0.000000 0.000000 0.000000 0.000000 0.000000 0.000000 0.000000 0.000000 0.000000 0.000000 0.000000 0.000000 0.000000 0.000000 0.000000 0.000000 0.000000 0.000000 0.000000 0.000000 0.000000 0.000000 0.000000 0.000000 0.000000 0.000000 0.000000 0.000000 0.000000 0.000000 0.000000 0.000000 0.000000 0.000000 0.000000 0.000000 0.000000 0.000000 0.000000 0.000000 0.000000 0.000000 0.000000 0.000000 0.000000 0.000000 0.000000 0.000000 0.000000 0.000000 0.000000 
0.000000 43.528500 0.000000 -97.016327 0.000000 0.000000 28.538515 0.038603 -0.002812 -9.528138 -0.068975 -0.553972 17.998348 0.000000 0.000000 8.998567 0.000000 0.000000 1.238924 -8.784151 34.946716 -60.738449 -63.969414 -10.709241 -28.836315 -12.071583 -32.255676 -15.294182 -4.586486 30.077887 -15.573485 -34.569942 -9.444855 87.185555 -47.186886 -8.853746 63.409550 40.597935 53.823845 9.356712 -10.976875 10.600477 2.916637 19.175879 1.526971 15.786174 -0.372100 -0.282844 10.736734 0.465483 5.379895 -9.950304 -12.335041 -4.963992 42.726910 2.708846 0.280377 18.598225 2.258432 -8.448793 
0.000000 43.445229 -0.030539 -96.515938 0.000000 0.000000 28.038647 0.036452 -0.002815 -8.653436 -0.072674 -0.558644 17.745539 -0.048091 -0.019799 8.939145 0.012039 -0.072241 1.142287 -8.647213 34.269062 -60.738449 -63.969421 -10.709248 -29.023298 -12.159843 -32.304245 -15.294182 -4.586486 30.077887 -15.081256 -33.173206 -8.517770 86.828384 -46.329735 -8.358392 64.517738 38.591053 52.362427 9.609980 -10.737711 11.521608 2.349771 19.183426 1.379375 15.786176 -0.372100 -0.282844 10.977872 0.589322 5.384597 -10.583265 -12.290284 -4.816393 42.726910 2.708846 0.280377 18.797710 2.135513 -8.389334 
0.000000 43.361958 -0.061077 -96.015388 0.000000 0.000000 27.538633 0.034301 -0.002799 -7.777910 -0.076304 -0.563376 17.492514 -0.096313 -0.039403 8.879694 0.024006 -0.144510 1.047276 -8.509076 33.591503 -60.738461 -63.969414 -10.709237 -29.210424 -12.247952 -32.353123 -15.294184 -4.586486 30.077887 -14.621869 -31.765701 -7.616342 86.486931 -45.469643 -7.877778 65.536667 36.554417 50.982594 9.867267 -10.502278 12.444289 1.782664 19.189600 1.231650 15.786174 -0.372100 -0.282844 11.219023 0.713191 5.388777 -11.216290 -12.243911 -4.669263 42.726910 2.708846 0.280377 18.997328 2.012793 -8.329448 
0.000000 43.278690 -0.091616 -95.514717 0.000000 0.000000 27.038481 0.032150 -0.002765 -6.901668 -0.079864 -0.568168 17.239285 -0.144663 -0.058811 8.820218 0.035900 -0.216807 0.953910 -8.369766 32.914070 -60.738457 -63.969421 -10.709245 -29.397701 -12.335913 -32.402317 -15.294184 -4.586486 30.077887 -14.193825 -30.348444 -6.738899 86.160393 -44.606812 -7.411117 66.473503 34.491749 49.676914 10.128476 -10.270684 13.368392 1.215348 19.194391 1.083817 15.786176 -0.372100 -0.282844 11.460189 0.837086 5.392435 -11.849342 -12.195939 -4.522635 42.726910 2.708846 0.280377 19.197069 1.890275 -8.269134 
0.000000 43.195419 -0.122154 -95.013901 0.000000 0.000000 26.538214 0.029998 -0.002712 -6.024807 -0.083353 -0.573017 16.985842 -0.193142 -0.078022 8.760715 0.047722 -0.289131 0.862210 -8.229318 32.236832 -60.738441 -63.969414 -10.709244 -29.585129 -12.423716 -32.451820 -15.294180 -4.586485 30.077887 -13.795702 -28.922417 -5.883859 85.848152 -43.741497 -6.957718 67.334724 32.406601 48.438641 10.393517 -10.043047 14.293798 0.647857 19.197802 0.935898 15.786174 -0.372100 -0.282844 11.701372 0.961003 5.395572 -12.482368 -12.146361 -4.376531 42.726906 2.708846 0.280377 19.396931 1.767961 -8.208390 
0.000000 43.112148 -0.152693 -94.513008 0.000000 0.000000 26.037851 0.027846 -0.002640 -5.147432 -0.086770 -0.577921 16.732195 -0.241748 -0.097036 8.701180 0.059471 -0.361483 0.772194 -8.087755 31.559826 -60.738449 -63.969414 -10.709241 -29.772696 -12.511363 -32.501640 -15.294182 -4.586486 30.077887 -13.426192 -27.488600 -5.049735 85.549492 -42.873909 -6.516893 68.126213 30.302414 47.261681 10.662298 -9.819476 15.220384 0.080223 19.199823 0.787915 15.786174 -0.372100 -0.282844 11.942574 1.084940 5.398189 -13.115337 -12.095200 -4.230984 42.726910 2.708846 0.280377 19.596922 1.645854 -8.147224 
0.000000 43.028877 -0.183232 -94.012039 0.000000 0.000000 25.537409 0.025695 -0.002549 -4.269644 -0.090112 -0.582880 16.478348 -0.290480 -0.115850 8.641622 0.071147 -0.433862 0.683879 -7.945109 30.883080 -60.738449 -63.969414 -10.709241 -29.960413 -12.598852 -32.551762 -15.294182 -4.586486 30.077887 -13.084079 -26.047968 -4.235122 85.263763 -42.004223 -6.088002 68.853203 28.182434 46.140438 10.934706 -9.600073 16.148006 -0.487518 19.200462 0.639891 15.786174 -0.372100 -0.282844 12.183787 1.208892 5.400282 -13.748189 -12.042451 -4.086015 42.726910 2.708846 0.280377 19.797039 1.523957 -8.085633 
0.000000 42.945610 -0.213770 -93.511017 0.000000 0.000000 25.036917 0.023545 -0.002440 -3.391547 -0.093379 -0.587891 16.224293 -0.339337 -0.134464 8.582035 0.082750 -0.506267 0.597282 -7.801408 30.206635 -60.738457 -63.969421 -10.709238 -30.148281 -12.686184 -32.602203 -15.294182 -4.586486 30.077887 -12.768209 -24.601452 -3.438693 84.990410 -41.132668 -5.670453 69.520500 26.049826 45.069897 11.210644 -9.384943 17.076548 -1.055334 19.199720 0.491848 15.786174 -0.372100 -0.282844 12.425021 1.332856 5.401856 -14.380896 -11.988137 -3.941656 42.726910 2.708846 0.280377 19.997284 1.402272 -8.023621 
0.000000 42.862339 -0.244309 -93.009933 0.000000 0.000000 24.536383 0.021395 -0.002312 -2.513244 -0.096570 -0.592953 15.970039 -0.388316 -0.152876 8.522422 0.094281 -0.578700 0.512421 -7.656686 29.530560 -60.738461 -63.969429 -10.709242 -30.336285 -12.773350 -32.652954 -15.294184 -4.586487 30.077887 -12.477531 -23.149996 -2.659197 84.728874 -40.259426 -5.263683 70.132347 23.907614 44.045437 11.490002 -9.174187 18.005865 -1.623190 19.197586 0.343809 15.786174 -0.372100 -0.282844 12.666265 1.456829 5.402907 -15.013400 -11.932257 -3.797930 42.726910 2.708846 0.280377 20.197653 1.280803 -7.961183 
0.000000 42.779068 -0.274847 -92.508850 0.000000 0.000000 24.035831 0.019246 -0.002165 -1.634836 -0.099683 -0.598063 15.715590 -0.437418 -0.171086 8.462780 0.105738 -0.651160 0.429311 -7.510971 28.854876 -60.738449 -63.969414 -10.709241 -30.524443 -12.860359 -32.704021 -15.294184 -4.586486 30.077887 -12.211056 -21.694515 -1.895449 84.478630 -39.384708 -4.867162 70.692635 21.758717 43.062916 11.772665 -8.967895 18.935822 -2.191055 19.194075 0.195795 15.786174 -0.372100 -0.282844 12.907522 1.580806 5.403434 -15.645670 -11.874827 -3.654866 42.726910 2.708846 0.280377 20.398149 1.159551 -7.898324 
0.000000 42.695797 -0.305386 -92.007767 0.000000 0.000000 23.535275 0.017099 -0.001999 -0.756428 -0.102718 -0.603221 15.460946 -0.486642 -0.189093 8.403114 0.117122 -0.723647 0.347967 -7.364294 28.179632 -60.738434 -63.969406 -10.709247 -30.712748 -12.947204 -32.755398 -15.294182 -4.586486 30.077887 -11.967856 -20.235899 -1.146328 84.239212 -38.508698 -4.480397 71.204826 19.605936 42.118515 12.058523 -8.766162 19.866282 -2.758893 19.189171 0.047829 15.786173 -0.372100 -0.282844 13.148799 1.704784 5.403441 -16.277651 -11.815853 -3.512487 42.726910 2.708846 0.280377 20.598770 1.038521 -7.835043 
0.000000 42.612526 -0.335924 -91.506699 0.000000 0.000000 23.034742 0.014953 -0.001814 0.121877 -0.105672 -0.608424 15.206101 -0.535984 -0.206896 8.343420 0.128433 -0.796159 0.268404 -7.216687 27.504858 -60.738449 -63.969406 -10.709243 -30.901190 -13.033882 -32.807079 -15.294182 -4.586486 30.077887 -11.747089 -18.775055 -0.410776 84.010147 -37.631580 -4.102908 71.672058 17.451963 41.208767 12.347459 -8.569077 20.797104 -3.326673 19.182886 -0.100066 15.786174 -0.372100 -0.282844 13.390088 1.828760 5.402925 -16.909311 -11.755353 -3.370822 42.726910 2.708846 0.280377 20.799509 0.917714 -7.771341 
0.000000 42.529259 -0.366463 -91.005669 0.000000 0.000000 22.534246 0.012810 -0.001611 0.999976 -0.108546 -0.613671 14.951069 -0.585446 -0.224493 8.283701 0.139671 -0.868698 0.190634 -7.068183 26.830616 -60.738449 -63.969414 -10.709241 -31.089775 -13.120392 -32.859074 -15.294182 -4.586485 30.077887 -11.547959 -17.312841 0.312216 83.791000 -36.753540 -3.734260 72.097099 15.299381 40.330490 12.639348 -8.376720 21.728142 -3.894359 19.175219 -0.247869 15.786174 -0.372100 -0.282844 13.631388 1.952730 5.401887 -17.540598 -11.693333 -3.229893 42.726910 2.708846 0.280377 21.000383 0.797133 -7.707222 
0.000000 42.445988 -0.397002 -90.504700 0.000000 0.000000 22.033808 0.010668 -0.001389 1.877765 -0.111338 -0.618959 14.695846 -0.635024 -0.241883 8.223955 0.150835 -0.941264 0.114671 -6.918815 26.156937 -60.738449 -63.969414 -10.709241 -31.278511 -13.206735 -32.911381 -15.294182 -4.586486 30.077887 -11.369734 -15.850123 1.023599 83.581367 -35.874748 -3.374031 72.482529 13.150669 39.480770 12.934068 -8.189170 22.659248 -4.461917 19.166166 -0.395558 15.786174 -0.372100 -0.282844 13.872701 2.076690 5.400327 -18.171474 -11.629810 -3.089729 42.726910 2.708846 0.280377 21.201372 0.676781 -7.642680 
